<svg xmlns="http://www.w3.org/2000/svg" version="1.1" xmlns:xlink="http://www.w3.org/1999/xlink" xmlns:svgjs="http://svgjs.dev/svgjs" width="3000" height="3000" preserveAspectRatio="none" viewBox="0 0 3000 3000"><g mask="url(&quot;#SvgjsMask1044&quot;)" fill="none"><rect width="3000" height="3000" x="0" y="0" fill="url(&quot;#SvgjsLinearGradient1045&quot;)"></rect><path d="M3000 0L1615.78 0L3000 1052.51z" fill="rgba(255, 255, 255, .1)"></path><path d="M1615.78 0L3000 1052.51L3000 1453.2L978.6 0z" fill="rgba(255, 255, 255, .075)"></path><path d="M978.5999999999999 0L3000 1453.2L3000 1615.02L549.55 0z" fill="rgba(255, 255, 255, .05)"></path><path d="M549.5499999999997 0L3000 1615.02L3000 1886.52L207.6899999999997 0z" fill="rgba(255, 255, 255, .025)"></path><path d="M0 3000L75.28 3000L0 1944.97z" fill="rgba(0, 0, 0, .1)"></path><path d="M0 1944.97L75.28 3000L1000.49 3000L0 1645.05z" fill="rgba(0, 0, 0, .075)"></path><path d="M0 1645.05L1000.49 3000L1380.04 3000L0 922.76z" fill="rgba(0, 0, 0, .05)"></path><path d="M0 922.7600000000002L1380.04 3000L2175.47 3000L0 704.0100000000002z" fill="rgba(0, 0, 0, .025)"></path></g><defs><mask id="SvgjsMask1044"><rect width="3000" height="3000" fill="#ffffff"></rect></mask><linearGradient x1="0%" y1="0%" x2="100%" y2="100%" gradientUnits="userSpaceOnUse" id="SvgjsLinearGradient1045"><stop stop-color="rgba(26, 132, 123, 1)" offset="0"></stop><stop stop-color="rgba(0, 87, 81, 1)" offset="1"></stop></linearGradient></defs></svg>